<svg xmlns="http://www.w3.org/2000/svg" aria-hidden="true" style="position:absolute;width:0;height:0;overflow:hidden"><defs><symbol id="icon-twitter" viewBox="0 0 32 32"><path d="M29.946 8c-.954.442-2.061.765-3.223.914l-.057.006a5.765 5.765 0 0 0 2.496-3.132l.011-.041a11.305 11.305 0 0 1-3.553 1.387l-.075.013C24.492 6 23.012 5.333 21.332 5.333c-3.134 0-5.694 2.56-5.694 5.72 0 .454.054.894.146 1.306A16.246 16.246 0 0 1 4.02 6.415l-.023-.029a5.6 5.6 0 0 0-.774 2.856v.011-.001c0 1.986 1 3.746 2.547 4.746-.947 0-1.827-.266-2.6-.666v.044a5.725 5.725 0 0 0 4.549 5.603l.037.006a5.633 5.633 0 0 1-2.609.086l.036.006c.72 2.254 2.814 3.934 5.334 3.974-1.946 1.546-4.414 2.454-7.106 2.454-.454 0-.907-.027-1.36-.08 2.475 1.613 5.504 2.573 8.758 2.573h.016-.001c10.507 0 16.28-8.72 16.28-16.28 0-.253 0-.493-.013-.746 1.12-.8 2.08-1.814 2.853-2.974z"/></symbol><symbol id="icon-point" viewBox="0 0 32 32"><path stroke-linecap="round" stroke-linejoin="round" stroke-width="1.6" d="M26.286 13.714c0 8-10.286 14.857-10.286 14.857S5.714 21.714 5.714 13.714C5.714 8.033 10.319 3.428 16 3.428s10.286 4.605 10.286 10.286z"/><path stroke-linecap="round" stroke-linejoin="round" stroke-width="1.6" d="M16 17.142h.052a3.429 3.429 0 1 0 0-6.858h-.055H16a3.429 3.429 0 1 0 0 6.858z"/></symbol><symbol id="icon-phone" viewBox="0 0 32 32"><path d="M26.666 20.666c-1.6 0-3.333-.266-4.8-.8h-.4c-.4 0-.666.134-.933.4L17.599 23.2c-3.734-2-6.934-5.066-8.8-8.8l2.934-2.934c.4-.4.533-.933.266-1.333-.4-1.467-.666-3.2-.666-4.8 0-.667-.667-1.334-1.334-1.334H5.333c-.667 0-1.334.666-1.334 1.334 0 12.533 10.134 22.666 22.666 22.666.667 0 1.334-.666 1.334-1.334v-4.666c0-.666-.666-1.334-1.334-1.334zm-20-14h2c.134 1.2.4 2.4.667 3.467l-1.6 1.6c-.534-1.6-.934-3.334-1.067-5.067zm18.668 18.668c-1.734-.134-3.467-.534-5.067-1.067l1.6-1.6c1.067.267 2.267.534 3.467.534v2.134z"/></symbol><symbol id="icon-mobile-logo" viewBox="0 0 112 32"><path d="M5.676 1.94v13.054h.366c1.77 0 2.744-1.824 2.918-5.474h.844v12.776h-.74c-.054-1.57-.3-2.926-.742-4.066-.434-1.14-1.194-1.71-2.28-1.71h-.366v13.378h2.19v1.524H0v-1.524h1.938V1.94H0V.44h12.814l.124 9.448h-.798C11.608 4.59 10.256 1.94 8.082 1.94H5.676zM18.724 32c-1.528 0-2.748-.986-3.66-2.958s-1.368-4.266-1.368-6.884c0-2.65.464-4.96 1.39-6.932.928-1.972 2.14-2.958 3.638-2.958 1.512 0 2.732.98 3.66 2.934.932 1.94 1.4 4.26 1.4 6.956 0 2.68-.464 4.99-1.39 6.93-.92 1.94-2.144 2.912-3.67 2.912zm0-18.554c-.404 0-.726.2-.97.6-.244.386-.392.988-.444 1.804-.054.8-.08 2.904-.08 6.308 0 3.31.022 5.344.068 6.1.054.754.206 1.37.456 1.848.26.46.604.692 1.038.692.35 0 .654-.2.912-.6.266-.416.426-1.156.48-2.22.052-1.076.078-2.894.078-5.452 0-3.988-.076-6.5-.228-7.532s-.588-1.548-1.31-1.548zm11.118-6.4v5.778h2.304v1.432H29.84V26.87c0 1.68.256 2.52.764 2.52.464 0 .814-.84 1.05-2.52h.706c-.136 1.756-.44 3.012-.912 3.766-.472.74-1.228 1.11-2.268 1.11-.746 0-1.296-.24-1.654-.716a3.545 3.545 0 0 1-.648-1.671l-.002-.017a19.283 19.283 0 0 1-.123-2.485v.013-12.614h-1.278v-1.432h1.278V8.132l3.088-1.086zM39.116 32c-1.528 0-2.748-.986-3.66-2.958s-1.368-4.266-1.368-6.884c0-2.65.464-4.96 1.39-6.932.928-1.972 2.14-2.958 3.638-2.958 1.512 0 2.732.98 3.66 2.934.934 1.94 1.4 4.26 1.4 6.956 0 2.68-.462 4.99-1.39 6.93-.92 1.94-2.144 2.912-3.67 2.912zm0-18.554c-.404 0-.726.2-.97.6-.242.386-.39.988-.444 1.804-.054.8-.08 2.904-.08 6.308 0 3.31.024 5.344.068 6.1.054.754.206 1.37.456 1.848.26.46.604.692 1.038.692.35 0 .654-.2.912-.6.266-.416.426-1.156.48-2.22.052-1.076.08-2.894.08-5.452 0-3.988-.078-6.5-.23-7.532s-.588-1.548-1.31-1.548zm20.102 7.28v6.006c-1.786 3.404-3.716 5.106-5.792 5.106-2.028 0-3.726-1.548-5.094-4.644s-2.052-6.86-2.052-11.298c0-4.498.72-8.272 2.166-11.32C49.89 1.522 51.55 0 53.426 0c1.392 0 2.66.948 3.808 2.84.26-.538.562-1.23.912-2.078h.764v9.22h-.764c-.828-5.64-2.4-8.458-4.72-8.458-.78 0-1.406.356-1.868 1.064-.456.708-.74 1.794-.856 3.258-.114 1.448-.17 4.39-.17 8.826 0 4.296.008 7.508.022 9.634.022 2.11.254 3.62.696 4.528.44.91 1.106 1.364 1.994 1.364.7 0 1.208-.24 1.528-.716.32-.494.512-1.14.58-1.94.07-.802.104-2.034.104-3.698v-3.12h-2.052v-1.5h7.01v1.5h-1.196zm6.572-8.18v5.106h.044c.182-1.818.484-3.166.9-4.044.42-.892.882-1.34 1.392-1.34.494 0 .896.362 1.208 1.086.312.71.468 1.588.468 2.634 0 .894-.12 1.618-.354 2.172-.236.54-.52.808-.854.808s-.624-.254-.866-.76a3.898 3.898 0 0 1-.354-1.638v-.053.003c0-.77.064-1.31.194-1.618.136-.308.204-.508.204-.6 0-.17-.06-.254-.18-.254-.38 0-.746.754-1.096 2.264-.342 1.51-.514 3.96-.514 7.348v6.354h1.7v1.408h-5.996v-1.408h1.184v-15.76h-1.184v-1.43h1.516c.804 0 1.398-.048 1.778-.14l.41-.14h.4zm11.666 8.272v-4.16c0-1.124-.068-1.918-.206-2.38-.136-.46-.486-.692-1.048-.692-.448 0-.8.14-1.048.416-.252.26-.378.53-.378.808 0 .184.088.462.264.832.18.37.272.832.272 1.386 0 .8-.148 1.494-.444 2.08-.296.57-.668.854-1.116.854-.412 0-.764-.27-1.06-.808-.298-.554-.446-1.224-.446-2.01 0-1.356.396-2.504 1.186-3.442.798-.956 1.9-1.434 3.306-1.434 1.086 0 1.994.278 2.724.832.738.554 1.106 1.802 1.106 3.744v9.75c0 1.68.232 2.518.696 2.518.128 0 .308-.146.536-.44l.306 1.04C81.46 31.24 80.712 32 79.862 32c-.89 0-1.634-.932-2.236-2.796-.994 1.864-2.1 2.796-3.316 2.796-.82 0-1.468-.432-1.94-1.294-.47-.878-.706-1.964-.706-3.258 0-4.112 1.932-6.322 5.792-6.63zm0 4.228V22.04c-1.026.076-1.74.408-2.144.994-.402.57-.604 1.532-.604 2.888 0 1.046.126 1.872.376 2.472.252.6.574.9.97.9.448 0 .794-.3 1.036-.9.244-.6.366-1.718.366-3.35zm10.868-10.79v15.758h1.79v1.408h-6.35v-1.408h1.472v-15.76h-1.608v-1.43h1.608C85.304 4.274 86.758 0 89.6 0c.774 0 1.416.354 1.926 1.062.51.71.764 1.664.764 2.866 0 .846-.144 1.556-.434 2.126-.288.57-.626.854-1.014.854-.372 0-.684-.23-.934-.692-.252-.48-.378-1.08-.378-1.802 0-.68.092-1.218.274-1.62.19-.414.286-.684.286-.806 0-.448-.202-.672-.604-.672-.396 0-.716.31-.96.926-.234.616-.352 1.416-.352 2.402l.148 5.684v2.496h1.654v1.432h-1.654zm9.752 6.562v-4.16c0-1.124-.068-1.918-.204-2.38-.138-.46-.488-.692-1.05-.692-.448 0-.798.14-1.048.416-.252.26-.376.53-.376.808 0 .184.086.462.26.832.184.37.276.832.276 1.386 0 .8-.15 1.494-.446 2.08-.296.57-.668.854-1.116.854-.412 0-.764-.27-1.06-.808-.298-.554-.446-1.224-.446-2.01 0-1.356.396-2.504 1.186-3.442.798-.956 1.9-1.434 3.306-1.434 1.086 0 1.994.278 2.724.832.738.554 1.106 1.802 1.106 3.744v9.75c0 1.68.232 2.518.696 2.518.128 0 .308-.146.536-.44l.308 1.04C102.08 31.24 101.332 32 100.48 32c-.89 0-1.634-.932-2.234-2.796C97.25 31.068 96.144 32 94.926 32c-.82 0-1.464-.432-1.936-1.294-.472-.878-.706-1.964-.706-3.258 0-4.112 1.93-6.322 5.79-6.63zm0 4.228V22.04c-1.026.076-1.74.408-2.142.994-.404.57-.606 1.532-.606 2.888 0 1.046.126 1.872.376 2.472.252.6.574.9.97.9.448 0 .794-.3 1.038-.9.242-.6.364-1.718.364-3.35zm13.218-12.778v5.754h-.696c-.426-2.896-1.346-4.344-2.76-4.344-.53 0-.99.26-1.38.786-.386.508-.58 1.132-.58 1.872 0 .63.148 1.116.444 1.454.304.34 1.072.632 2.304.88 1.23.246 2.1.908 2.61 1.986s.764 2.456.764 4.136c0 2.11-.322 3.842-.968 5.198-.64 1.34-1.506 2.01-2.6 2.01-1.08 0-1.968-.646-2.668-1.94l-.718 1.178h-.524v-6.77h.684c.494 4.004 1.576 6.008 3.248 6.008.6 0 1.118-.286 1.552-.856.44-.57.66-1.294.66-2.172 0-.616-.118-1.116-.354-1.5-.228-.386-.78-.68-1.652-.88-.866-.2-1.58-.47-2.144-.808-.56-.354-1.02-.986-1.38-1.894-.356-.924-.534-2.15-.534-3.674 0-1.756.304-3.266.912-4.528.608-1.264 1.448-1.896 2.52-1.896.76 0 1.488.44 2.188 1.318l.536-1.318h.536z"/></symbol><symbol id="icon-logo" viewBox="0 0 224 32"><path d="M11.354 1.94v13.055h.729c3.542 0 5.488-1.825 5.837-5.476h1.687v12.777h-1.482c-.106-1.571-.601-2.925-1.482-4.065-.865-1.14-2.385-1.711-4.56-1.711h-.729v13.379h4.378v1.524H0v-1.526h3.876V1.942H0V.439h25.626l.25 9.45H24.28C23.217 4.59 20.511 1.94 16.164 1.94h-4.81zM37.446 32c-3.055 0-5.494-.986-7.318-2.957-1.824-1.972-2.736-4.266-2.736-6.886 0-2.649.927-4.96 2.781-6.931 1.855-1.972 4.279-2.957 7.273-2.957 3.025 0 5.465.977 7.319 2.934 1.869 1.94 2.804 4.259 2.804 6.954 0 2.681-.928 4.991-2.783 6.932C42.947 31.029 40.501 32 37.445 32zm0-18.553c-.806 0-1.452.199-1.937.601-.486.384-.783.986-.889 1.802-.108.8-.16 2.903-.16 6.307 0 3.312.045 5.345.137 6.1.106.755.41 1.37.912 1.847.516.463 1.207.694 2.074.694.698 0 1.308-.201 1.824-.601.532-.416.851-1.155.959-2.218.106-1.078.16-2.895.16-5.453 0-3.988-.153-6.5-.457-7.532-.305-1.033-1.178-1.548-2.623-1.548zm22.24-6.4v5.775h4.605v1.434h-4.605v12.615c0 1.679.509 2.518 1.527 2.518.927 0 1.626-.839 2.097-2.518h1.414c-.273 1.756-.881 3.011-1.824 3.766-.943.739-2.455 1.108-4.538 1.108-1.489 0-2.591-.239-3.305-.716-.7-.477-1.133-1.04-1.3-1.687-.167-.646-.25-1.471-.25-2.473V14.257h-2.554v-1.433h2.554V8.13l6.179-1.085zM78.231 32c-3.055 0-5.495-.986-7.319-2.957-1.824-1.972-2.735-4.266-2.735-6.886 0-2.649.927-4.96 2.781-6.931 1.855-1.972 4.278-2.957 7.273-2.957 3.025 0 5.463.977 7.318 2.934 1.869 1.94 2.804 4.259 2.804 6.954 0 2.681-.927 4.991-2.781 6.932-1.84 1.94-4.287 2.911-7.341 2.911zm0-18.553c-.806 0-1.452.199-1.939.601-.486.384-.783.986-.887 1.802-.108.8-.16 2.903-.16 6.307 0 3.312.044 5.345.135 6.1.108.755.412 1.37.912 1.847.518.463 1.209.694 2.076.694.698 0 1.306-.201 1.824-.601.532-.416.851-1.155.957-2.218.106-1.078.16-2.895.16-5.453 0-3.988-.153-6.5-.457-7.532-.304-1.033-1.178-1.548-2.621-1.548zm40.205 7.277v6.007c-3.572 3.404-7.433 5.105-11.583 5.105-4.058 0-7.456-1.548-10.192-4.643-2.735-3.097-4.102-6.863-4.102-11.299 0-4.497 1.443-8.271 4.33-11.321 2.889-3.05 6.209-4.575 9.964-4.575 2.781 0 5.319.947 7.615 2.842a38.281 38.281 0 0 0 1.824-2.08h1.527v9.219h-1.527c-1.657-5.638-4.803-8.457-9.439-8.457-1.565 0-2.812.355-3.738 1.063-.913.708-1.484 1.795-1.711 3.258-.228 1.447-.342 4.39-.342 8.826 0 4.297.015 7.508.045 9.633.045 2.111.509 3.62 1.391 4.529s2.211 1.363 3.99 1.363c1.399 0 2.417-.239 3.055-.716a3.01 3.01 0 0 0 1.164-1.942c.137-.8.205-2.033.205-3.696v-3.12h-4.103v-1.501h14.022v1.501h-2.394zm13.142-8.179v5.105h.092c.364-1.817.964-3.164 1.801-4.042.836-.893 1.763-1.34 2.781-1.34.989 0 1.793.362 2.417 1.085.623.708.934 1.587.934 2.634 0 .893-.236 1.617-.707 2.172-.471.538-1.04.809-1.709.809s-1.247-.255-1.734-.762c-.47-.509-.705-1.071-.705-1.687 0-.771.128-1.309.387-1.616.273-.308.41-.509.41-.602 0-.169-.121-.253-.364-.253-.761 0-1.491.755-2.189 2.263-.684 1.51-1.027 3.959-1.027 7.348v6.353h3.398v1.409H123.37V30.01h2.371V14.256h-2.371v-1.433h3.033c1.612 0 2.796-.047 3.556-.138l.82-.14h.799zm23.334 8.272v-4.16c0-1.123-.137-1.917-.41-2.378-.275-.463-.973-.694-2.099-.694-.896 0-1.596.138-2.097.416-.5.262-.752.531-.752.809 0 .185.175.463.525.832.364.369.547.832.547 1.386 0 .8-.297 1.494-.889 2.08-.593.569-1.338.854-2.236.854-.82 0-1.527-.269-2.119-.809-.593-.554-.89-1.225-.89-2.01 0-1.356.791-2.502 2.372-3.443 1.596-.954 3.799-1.431 6.611-1.431 2.173 0 3.99.276 5.449.832 1.475.553 2.212 1.802 2.212 3.743v9.75c0 1.679.463 2.518 1.391 2.518.259 0 .615-.145 1.072-.438l.615 1.039c-1.292 1.526-2.79 2.288-4.492 2.288-1.779 0-3.268-.931-4.468-2.796-1.991 1.863-4.204 2.796-6.634 2.796-1.642 0-2.934-.432-3.876-1.295-.943-.877-1.414-1.964-1.414-3.258 0-4.112 3.86-6.321 11.583-6.63zm0 4.229v-3.004c-2.052.077-3.481.407-4.287.993-.806.57-1.209 1.532-1.209 2.887 0 1.047.252 1.872.752 2.473.502.601 1.148.902 1.939.902.896 0 1.588-.301 2.074-.902s.73-1.716.73-3.35zm21.737-10.791v15.759h3.58v1.409h-12.7v-1.411h2.941V14.258h-3.215v-1.433h3.215C170.608 4.275 173.519 0 179.203 0c1.551 0 2.835.355 3.853 1.062 1.018.71 1.527 1.664 1.527 2.865 0 .848-.289 1.556-.867 2.127s-1.254.854-2.029.854c-.745 0-1.367-.23-1.869-.692-.502-.477-.752-1.078-.752-1.804 0-.676.182-1.216.547-1.616.38-.416.57-.685.57-.809 0-.447-.403-.669-1.209-.669-.79 0-1.428.307-1.916.924-.471.615-.707 1.417-.707 2.403l.297 5.683v2.496h3.306v1.431h-3.306zm19.504 6.562v-4.16c0-1.123-.137-1.917-.41-2.378-.275-.463-.973-.694-2.097-.694-.897 0-1.597.138-2.099.416-.5.262-.752.531-.752.809 0 .185.175.463.525.832.365.369.547.832.547 1.386 0 .8-.297 1.494-.889 2.08-.593.569-1.338.854-2.234.854h-.055a3.034 3.034 0 0 1-2.068-.811l.002.002a2.648 2.648 0 0 1-.889-1.98v-.032.002c0-1.356.79-2.502 2.371-3.443 1.596-.954 3.799-1.431 6.611-1.431 2.173 0 3.99.276 5.449.832 1.475.553 2.212 1.802 2.212 3.743v9.75c0 1.679.464 2.518 1.391 2.518.259 0 .615-.145 1.072-.438l.615 1.039c-1.292 1.526-2.79 2.288-4.492 2.288-1.779 0-3.268-.931-4.468-2.796-1.991 1.863-4.204 2.796-6.634 2.796-1.642 0-2.934-.432-3.876-1.295-.943-.877-1.414-1.964-1.414-3.258 0-4.112 3.86-6.321 11.583-6.63zm0 4.229v-3.004c-2.052.077-3.481.407-4.287.993-.806.57-1.209 1.532-1.209 2.887 0 1.047.252 1.872.752 2.473.502.601 1.148.902 1.939.902.896 0 1.588-.301 2.074-.902.487-.601.73-1.716.73-3.35zm26.433-12.777v5.753h-1.391c-.851-2.896-2.691-4.343-5.517-4.343-1.065 0-1.984.262-2.759.785-.775.509-1.162 1.132-1.162 1.871 0 .631.297 1.117.889 1.456.608.339 2.144.631 4.605.879 2.463.247 4.204.908 5.222 1.987 1.018 1.078 1.527 2.457 1.527 4.135 0 2.109-.646 3.843-1.937 5.199-1.277 1.34-3.009 2.01-5.199 2.01-2.159 0-3.937-.647-5.335-1.94l-1.436 1.178h-1.049V24.47h1.367c.988 4.004 3.153 6.007 6.497 6.007 1.201 0 2.234-.285 3.101-.855.881-.57 1.322-1.295 1.322-2.172l.001-.049c0-.588-.275-1.113-.704-1.451l-.004-.003c-.455-.385-1.558-.678-3.306-.877-1.732-.201-3.161-.47-4.285-.809a5.562 5.562 0 0 1-2.75-1.883l-.009-.012c-.714-.924-1.072-2.148-1.072-3.673 0-1.757.608-3.267 1.824-4.529s2.896-1.894 5.039-1.894c1.52 0 2.979.438 4.378 1.316l1.071-1.316h1.072z"/></symbol><symbol id="icon-instagram" viewBox="0 0 32 32"><path d="M10.4 2.666h11.2a7.74 7.74 0 0 1 7.734 7.734v11.2a7.734 7.734 0 0 1-7.734 7.733H10.4c-4.266 0-7.734-3.466-7.734-7.733V10.4A7.734 7.734 0 0 1 10.4 2.666zm-.266 2.667a4.8 4.8 0 0 0-4.8 4.8v11.734c0 2.654 2.146 4.8 4.8 4.8h11.733a4.8 4.8 0 0 0 4.8-4.8V10.133c0-2.653-2.146-4.8-4.8-4.8H10.134zm12.866 2a1.667 1.667 0 1 1 0 3.334 1.667 1.667 0 1 1 0-3.334zm-7 2a6.667 6.667 0 0 1 0 13.334 6.667 6.667 0 0 1 0-13.334zM16 12a4 4 0 0 0 0 8 4 4 0 0 0 0-8z"/></symbol><symbol id="icon-facebook" viewBox="0 0 32 32"><path d="M16 2.72c-7.334 0-13.334 5.987-13.334 13.36 0 6.667 4.88 12.2 11.254 13.2v-9.333h-3.386V16.08h3.386v-2.946c0-3.346 1.986-5.186 5.04-5.186 1.454 0 2.974.253 2.974.253v3.294h-1.68c-1.654 0-2.174 1.026-2.174 2.08v2.506h3.706l-.6 3.867H18.08v9.333c6.415-1.041 11.254-6.541 11.254-13.17v-.031.002c0-7.373-6-13.36-13.334-13.36z"/></symbol><symbol id="icon-email" viewBox="0 0 32 32"><path d="M29.334 8c0-1.467-1.2-2.666-2.667-2.666H5.334A2.674 2.674 0 0 0 2.667 8v16c0 1.466 1.2 2.666 2.667 2.666h21.333c1.467 0 2.667-1.2 2.667-2.666V8zm-2.668 0L16 14.666 5.334 8h21.333zm0 16H5.333V10.666l10.666 6.666 10.666-6.666V24z"/></symbol><symbol id="icon-bg" viewBox="0 0 15 32"><path d="M29.334 8c0-1.467-1.2-2.666-2.667-2.666H5.334A2.674 2.674 0 0 0 2.667 8v16c0 1.466 1.2 2.666 2.667 2.666h21.333c1.467 0 2.667-1.2 2.667-2.666V8zm-2.668 0L16 14.666 5.334 8h21.333zm0 16H5.333V10.666l10.666 6.666 10.666-6.666V24z"/></symbol><symbol id="icon-menu-close-btn" viewBox="0 0 32 32"><path d="M26.667 7.303l-1.97-1.97-7.808 7.808-7.808-7.808-1.97 1.97 7.808 7.808-7.808 7.808 1.97 1.97 7.808-7.808 7.808 7.808 1.97-1.97-7.808-7.808 7.808-7.808z"></path></symbol><symbol id="icon-menu" viewBox="0 0 32 32"><path d="M4 8h24v2.666H4V8zm0 6.666h24v2.667H4v-2.667zm0 6.668h24V24H4v-2.666z"/></symbol></defs></svg>